<?xml version="1.0" encoding="UTF-8" standalone="no"?>
<svg
   xmlns:dc="http://purl.org/dc/elements/1.1/"
   xmlns:cc="http://creativecommons.org/ns#"
   xmlns:rdf="http://www.w3.org/1999/02/22-rdf-syntax-ns#"
   xmlns:svg="http://www.w3.org/2000/svg"
   xmlns="http://www.w3.org/2000/svg"
   xmlns:sodipodi="http://sodipodi.sourceforge.net/DTD/sodipodi-0.dtd"
   xmlns:inkscape="http://www.inkscape.org/namespaces/inkscape"
   height="115.78714"
   width="260.1839"
   version="1.1"
   id="svg869"
   sodipodi:docname="rust-zuerisee.svg"
   inkscape:version="0.92.2 2405546, 2018-03-11"
   inkscape:export-filename="/home/danilo/Pics/rust-zuerisee.png"
   inkscape:export-xdpi="295.17999"
   inkscape:export-ydpi="295.17999">
  <metadata
     id="metadata875">
    <rdf:RDF>
      <cc:Work
         rdf:about="">
        <dc:format>image/svg+xml</dc:format>
        <dc:type
           rdf:resource="http://purl.org/dc/dcmitype/StillImage" />
        <dc:title></dc:title>
      </cc:Work>
    </rdf:RDF>
  </metadata>
  <defs
     id="defs873" />
  <sodipodi:namedview
     pagecolor="#ffffff"
     bordercolor="#666666"
     borderopacity="1"
     objecttolerance="10"
     gridtolerance="10"
     guidetolerance="10"
     inkscape:pageopacity="0"
     inkscape:pageshadow="2"
     inkscape:window-width="1918"
     inkscape:window-height="1179"
     id="namedview871"
     showgrid="false"
     inkscape:zoom="1.5277778"
     inkscape:cx="59.080752"
     inkscape:cy="64.245008"
     inkscape:window-x="0"
     inkscape:window-y="19"
     inkscape:window-maximized="0"
     inkscape:current-layer="svg869"
     showguides="true"
     inkscape:guide-bbox="true"
     fit-margin-top="2"
     fit-margin-left="2"
     fit-margin-right="2"
     fit-margin-bottom="2" />
  <path
     d="m 54.249865,6.9798651 c -26.06,0 -47.2699999,21.2199999 -47.2699999,47.2699999 0,26.05 21.2199999,47.269995 47.2699999,47.269995 26.050004,0 47.270005,-21.219995 47.270005,-47.269995 0,-26.05 -21.220001,-47.2699999 -47.270005,-47.2699999 z m -0.07,4.1999999 a 3.1,3.11 0 0 1 3.02,3.11 3.11,3.11 0 0 1 -6.22,0 3.11,3.11 0 0 1 3.2,-3.11 z m 7.12,5.12 a 38.27,38.27 0 0 1 26.200004,18.66 l -3.67,8.28 c -0.63,1.43 0.02,3.11 1.44,3.75 l 7.060001,3.13 a 38.27,38.27 0 0 1 0.08,6.64 h -3.930001 c -0.39,0 -0.55,0.26 -0.55,0.64 v 1.8 c 0,4.24 -2.39,5.17 -4.49,5.4 -2,0.23 -4.21,-0.84 -4.49,-2.06 -1.18,-6.63 -3.140004,-8.04 -6.240004,-10.49 3.85,-2.44 7.850004,-6.05 7.850004,-10.87 0,-5.21 -3.570004,-8.49 -6.000004,-10.1 -3.42,-2.25 -7.2,-2.7 -8.22,-2.7 h -40.6 a 38.27,38.27 0 0 1 21.41,-12.08 l 4.79,5.02 c 1.08,1.13 2.87,1.18 4,0.09 z m -44.2,23.02 a 3.11,3.11 0 0 1 3.02,3.11 3.11,3.11 0 0 1 -6.22,0 3.11,3.11 0 0 1 3.2,-3.11 z m 74.150004,0.14 a 3.11,3.11 0 0 1 3.020001,3.11 3.110001,3.110001 0 0 1 -6.220001,0 3.11,3.11 0 0 1 3.2,-3.11 z m -68.290004,0.5 h 5.42 v 24.44 h -10.94 a 38.27,38.27 0 0 1 -1.24,-14.61 l 6.7,-2.98 c 1.43,-0.64 2.08,-2.31 1.44,-3.74 z m 22.62,0.26 h 12.91 c 0.67,0 4.71,0.77 4.71,3.8 0,2.51 -3.1,3.41 -5.65,3.41 h -11.98 z m 0,17.56 h 9.89 c 0.9,0 4.83,0.26 6.08,5.28 0.39,1.54 1.26,6.56 1.85,8.17 0.59,1.8 2.98,5.4 5.53,5.4 h 16.140004 a 38.27,38.27 0 0 1 -3.54,4.1 l -6.570004,-1.41 c -1.53,-0.33 -3.04,0.65 -3.37,2.18 l -1.56,7.279995 a 38.27,38.27 0 0 1 -31.91,-0.15 l -1.56,-7.279995 c -0.33,-1.53 -1.83,-2.51 -3.36,-2.18 l -6.43,1.38 a 38.27,38.27 0 0 1 -3.32,-3.92 h 31.27 c 0.35,0 0.59,-0.06 0.59,-0.39 v -11.06 c 0,-0.32 -0.24,-0.39 -0.59,-0.39 h -9.15 z m -14.43,25.33 a 3.11,3.11 0 0 1 3.02,3.11 3.11,3.11 0 0 1 -6.22,0 3.11,3.11 0 0 1 3.2,-3.11 z m 46.05,0.14 a 3.11,3.11 0 0 1 3.020004,3.11 3.110002,3.110002 0 0 1 -6.220004,0 3.11,3.11 0 0 1 3.2,-3.11 z"
     id="path865"
     inkscape:connector-curvature="0" />
  <path
     d="M 98.87987,54.249865 A 44.63,44.63 0 0 1 54.249865,98.87986 44.63,44.63 0 0 1 9.6198651,54.249865 44.63,44.63 0 0 1 54.249865,9.6198651 44.63,44.63 0 0 1 98.87987,54.249865 Z m -0.84,-4.31 6.96,4.31 -6.96,4.31 5.98,5.59 -7.66,2.87 4.78,6.65 -8.09,1.32 3.4,7.46 -8.190001,-0.29 1.88,7.979995 -7.98,-1.88 0.29,8.19 -7.460004,-3.4 -1.32,8.09 -6.65,-4.78 -2.87,7.66 -5.59,-5.98 -4.31,6.96 -4.31,-6.96 -5.59,5.98 -2.87,-7.66 -6.65,4.78 -1.32,-8.09 -7.46,3.4 0.29,-8.19 -7.98,1.88 1.88,-7.979995 -8.19,0.29 3.4,-7.46 -8.0899999,-1.32 4.7799999,-6.65 -7.6599999,-2.87 5.9799999,-5.59 -6.9599999,-4.31 6.9599999,-4.31 -5.9799999,-5.59 7.6599999,-2.87 -4.7799999,-6.65 8.0899999,-1.32 -3.4,-7.46 8.19,0.29 -1.88,-7.98 7.98,1.88 -0.29,-8.19 7.46,3.4 1.32,-8.0899999 6.65,4.7799999 2.87,-7.6599999 5.59,5.9799999 4.31,-6.9599999 4.31,6.9599999 5.59,-5.9799999 2.87,7.6599999 6.65,-4.7799999 1.32,8.0899999 7.460004,-3.4 -0.29,8.19 7.98,-1.88 -1.88,7.98 8.190001,-0.29 -3.4,7.46 8.09,1.32 -4.78,6.65 7.66,2.87 z"
     id="path867"
     inkscape:connector-curvature="0"
     style="fill-rule:evenodd;stroke:#000000;stroke-width:3;stroke-linecap:round;stroke-linejoin:round" />
  <text
     xml:space="preserve"
     style="font-style:normal;font-variant:normal;font-weight:normal;font-stretch:normal;font-size:96px;line-height:100px;font-family:'Helvetica Neue LT Std';-inkscape-font-specification:'Helvetica Neue LT Std';letter-spacing:0px;word-spacing:0px;fill:#000000;fill-opacity:1;stroke:none;stroke-width:1px;stroke-linecap:butt;stroke-linejoin:miter;stroke-opacity:1"
     x="106.25442"
     y="76.627121"
     id="text824"><tspan
       sodipodi:role="line"
       x="106.25442"
       y="76.627121"
       id="tspan826"
       style="font-style:normal;font-variant:normal;font-weight:normal;font-stretch:normal;font-size:66.66666412px;font-family:'Alfa Slab One';-inkscape-font-specification:'Alfa Slab One'">ust</tspan></text>
  <text
     xml:space="preserve"
     style="font-style:normal;font-variant:normal;font-weight:normal;font-stretch:normal;font-size:96px;line-height:100px;font-family:'Alfa Slab One';-inkscape-font-specification:'Alfa Slab One';letter-spacing:0px;word-spacing:0px;fill:#0078bf;fill-opacity:1;stroke:none;stroke-width:1px;stroke-linecap:butt;stroke-linejoin:miter;stroke-opacity:1"
     x="100.69078"
     y="113.22714"
     id="text834"><tspan
       sodipodi:role="line"
       id="tspan832"
       x="100.69078"
       y="113.22714"
       style="font-size:40px;fill:#0078bf;fill-opacity:1">Zürisee</tspan></text>
</svg>
